<?xml version="1.0" encoding="utf-8" ?>
<svg xmlns="http://www.w3.org/2000/svg" xmlns:xlink="http://www.w3.org/1999/xlink" width="512" height="512">
	<path fill="#00272B" d="M0 0L0 512L512 512L512 0L0 0Z"/>
	<path fill="#E0FF4F" d="M223.467 201.557C227.183 211.057 233.444 219.021 238.802 227.589L265.503 268.912L273.506 279.251C275.551 281.727 277.978 284.139 279.559 286.942C249.141 294.879 214.016 285.739 191.205 264.21C176.936 250.742 167.063 234.794 162.41 215.793C161.13 210.567 160.083 205.025 159.933 199.637L159.898 192.628C159.939 142.57 203.008 100.993 252.35 99.6946C255.943 99.6723 259.633 99.5205 263.217 99.7935C307.197 103.143 343.808 135.606 351.199 179.284C354.888 201.081 350.325 224.984 338.684 243.764C336.731 246.915 334.629 249.986 332.11 252.716L317.386 243.424C307.912 236.737 296.764 226.273 289.548 216.895C289.546 216.46 290.57 215.232 290.848 214.773C293.674 210.102 295.71 204.826 296.25 199.372C299.064 170.962 269.018 146.813 242.235 157.507C223.753 164.886 216.037 183.135 223.467 201.557Z"/>
	<path fill="#E0FF4F" d="M265.163 220.282L263.496 220.573C252.341 221.997 245.502 216.523 239.925 207.366C234.128 197.85 229.211 184.557 237.202 174.746C240.926 170.175 246.611 167.815 252.361 167.238C253.058 167.122 253.865 167.187 254.574 167.188C268.25 167.199 280.989 177.124 283.953 190.564C286.913 203.986 278.627 217.336 265.163 220.282Z"/>
	<path fill="#E0FF4F" d="M330.325 291.062L316.148 288.351C282.431 279.449 273.298 260.674 257.586 233.743C266.676 232.999 272.835 231.394 280.747 227.213L281.16 227.123C282.176 227.774 283.099 228.797 283.963 229.64L290.582 236.452C303.663 249.886 316.415 259.391 334.517 264.151C341.162 265.899 345.931 266.545 352.657 266.635L352.68 286.268C352.673 289.963 353.285 290.17 349.432 290.835C343.096 291.928 336.689 291.624 330.325 291.062Z"/>
	<path fill="#E0FF4F" d="M65 452.471L65 334.237L88.7929 334.237C96.6752 334.237 103.195 335.283 108.353 337.375C113.51 339.467 117.33 342.825 119.811 347.447C122.293 352.069 123.533 358.127 123.533 365.62C123.533 370.194 123.047 374.354 122.074 378.1C121.101 381.847 119.544 385.009 117.403 387.588C115.262 390.167 112.44 392.04 108.937 393.208L125.723 452.471L109.812 452.471L94.3397 397.003L81.4945 397.003L81.4945 452.471L65 452.471ZM81.4945 385.18L87.7711 385.18C92.4421 385.18 96.2373 384.596 99.1567 383.428C102.076 382.26 104.217 380.265 105.579 377.443C106.942 374.621 107.623 370.68 107.623 365.62C107.623 358.711 106.358 353.724 103.828 350.658C101.298 347.593 96.2859 346.06 88.7929 346.06L81.4945 346.06L81.4945 385.18ZM140.758 452.471L140.758 334.237L186.592 334.237L186.592 346.498L157.252 346.498L157.252 385.618L181.045 385.618L181.045 397.295L157.252 397.295L157.252 440.648L186.884 440.648L186.884 452.471L140.758 452.471ZM220.749 452.471L194.328 334.237L209.801 334.237L228.485 421.38L246.293 334.237L261.328 334.237L235.199 452.471L220.749 452.471ZM273.881 452.471L273.881 334.237L319.715 334.237L319.715 346.498L290.376 346.498L290.376 385.618L314.169 385.618L314.169 397.295L290.376 397.295L290.376 440.648L320.007 440.648L320.007 452.471L273.881 452.471ZM333.29 452.471L333.29 334.237L349.785 334.237L349.785 440.648L380 440.648L380 452.471L333.29 452.471ZM418.682 453.785C411.87 453.785 406.202 452.325 401.677 449.406C397.152 446.487 393.721 442.448 391.386 437.291C389.05 432.133 387.689 426.148 387.299 419.336L401.896 415.395C402.188 419.58 402.844 423.618 403.866 427.511C404.888 431.403 406.567 434.59 408.902 437.072C411.238 439.553 414.497 440.794 418.682 440.794C422.963 440.794 426.199 439.602 428.389 437.218C430.579 434.834 431.673 431.403 431.673 426.927C431.673 421.575 430.457 417.269 428.024 414.009C425.591 410.749 422.525 407.464 418.828 404.156L398.976 386.639C395.083 383.234 392.214 379.511 390.364 375.473C388.515 371.434 387.591 366.447 387.591 360.511C387.591 351.85 390.072 345.136 395.035 340.367C399.998 335.599 406.761 333.215 415.325 333.215C419.996 333.215 424.108 333.823 427.659 335.04C431.211 336.256 434.18 338.129 436.563 340.659C438.947 343.189 440.845 346.376 442.256 350.22C443.668 354.064 444.616 358.565 445.102 363.722L431.089 367.518C430.797 363.625 430.214 360.049 429.338 356.789C428.462 353.529 426.929 350.902 424.74 348.907C422.55 346.912 419.412 345.914 415.325 345.914C411.238 345.914 408.051 347.009 405.764 349.199C403.477 351.388 402.334 354.624 402.334 358.905C402.334 362.506 402.942 365.474 404.158 367.81C405.374 370.145 407.345 372.529 410.07 374.962L430.068 392.478C434.544 396.371 438.486 401.017 441.891 406.418C445.297 411.819 447 418.217 447 425.613C447 431.452 445.784 436.488 443.351 440.721C440.917 444.954 437.585 448.19 433.352 450.428C429.119 452.666 424.229 453.785 418.682 453.785Z"/>
</svg>
