<?xml version="1.0" encoding="utf-8" ?>
<svg xmlns="http://www.w3.org/2000/svg" xmlns:xlink="http://www.w3.org/1999/xlink" width="512" height="512">
	<path fill="#E0FF4F" d="M0 0L0 512L512 512L512 0L0 0Z"/>
	<path fill="#00272B" d="M46.5035 67.7955C48.502 72.9045 51.869 77.1877 54.7505 81.7955L69.111 104.02L73.4153 109.58C74.5148 110.912 75.8203 112.209 76.6705 113.716C60.311 117.986 41.4203 113.07 29.1525 101.491C21.4781 94.248 16.1684 85.6707 13.6659 75.4518C12.9777 72.6412 12.4142 69.6603 12.3339 66.763L12.3151 62.9933C12.3368 36.0712 35.5003 13.7106 62.0367 13.0122C63.9695 13.0003 65.9537 12.9186 67.8815 13.0654C91.5345 14.8667 111.224 32.3257 115.2 55.8167C117.183 67.5392 114.73 80.395 108.469 90.495C107.418 92.1898 106.288 93.841 104.933 95.3093L97.0143 90.3123C91.919 86.7157 85.9237 81.088 82.0427 76.0443C82.0415 75.8102 82.5925 75.15 82.742 74.903C84.2615 72.3912 85.3568 69.5533 85.6472 66.6202C87.1603 51.341 71.0012 38.353 56.5968 44.1045C46.657 48.0733 42.5072 57.8875 46.5035 67.7955Z"/>
	<path fill="#00272B" d="M68.9278 77.866L68.0312 78.0225C62.032 78.7885 58.3537 75.8443 55.3545 70.9197C52.237 65.8015 49.5922 58.6525 53.8903 53.3762C55.893 50.9177 58.9505 49.6482 62.043 49.3383C62.4175 49.2758 62.852 49.3107 63.2332 49.3113C70.5885 49.3173 77.4395 54.6547 79.0337 61.8832C80.6255 69.1015 76.169 76.2818 68.9278 77.866Z"/>
	<path fill="#00272B" d="M103.973 115.932L96.3482 114.475C78.2152 109.687 73.303 99.5895 64.853 85.1052C69.7417 84.7053 73.0542 83.8423 77.3093 81.5938L77.5312 81.545C78.078 81.8953 78.5743 82.4453 79.0387 82.8988L82.5987 86.5625C89.634 93.7873 96.492 98.8992 106.228 101.46C109.801 102.399 112.366 102.747 115.984 102.795L115.996 113.354C115.992 115.341 116.321 115.453 114.249 115.811C110.841 116.398 107.396 116.235 103.973 115.932Z"/>
	<path fill="#00272B" d="M209.496 60.2045C207.498 55.0955 204.131 50.8123 201.25 46.2045L186.889 23.98L182.585 18.4197C181.485 17.0877 180.18 15.7908 179.329 14.2835C195.689 10.0145 214.58 14.9305 226.847 26.509C234.522 33.752 239.832 42.3293 242.334 52.5482C243.022 55.3588 243.586 58.3397 243.666 61.237L243.685 65.0067C243.663 91.9288 220.5 114.289 193.963 114.988C192.031 115 190.046 115.081 188.118 114.935C164.465 113.133 144.776 95.6743 140.8 72.1833C138.817 60.4608 141.27 47.605 147.531 37.505C148.582 35.8102 149.712 34.159 151.067 32.6907L158.986 37.6877C164.081 41.2843 170.076 46.912 173.957 51.9557C173.959 52.1898 173.407 52.85 173.258 53.097C171.738 55.6088 170.643 58.4467 170.353 61.3798C168.84 76.659 184.999 89.647 199.403 83.8955C209.343 79.9267 213.493 70.1125 209.496 60.2045Z"/>
	<path fill="#00272B" d="M187.072 50.134L187.969 49.9775C193.968 49.2115 197.646 52.1557 200.645 57.0803C203.763 62.1985 206.408 69.3475 202.11 74.6238C200.107 77.0823 197.049 78.3518 193.957 78.6617C193.582 78.7242 193.148 78.6893 192.767 78.6887C185.411 78.6827 178.56 73.3452 176.966 66.1167C175.375 58.8985 179.831 51.7182 187.072 50.134Z"/>
	<path fill="#00272B" d="M152.027 12.0678L159.652 13.5255C177.785 18.313 182.697 28.4105 191.147 42.8948C186.258 43.2947 182.946 44.1577 178.691 46.4062L178.469 46.455C177.922 46.1047 177.426 45.5547 176.961 45.1012L173.401 41.4375C166.366 34.2127 159.508 29.1008 149.773 26.5405C146.199 25.6008 143.634 25.253 140.016 25.2048L140.004 14.6458C140.008 12.6585 139.679 12.5473 141.751 12.1895C145.159 11.6015 148.604 11.765 152.027 12.0678Z"/>
	<path fill="#00272B" d="M302.504 67.7955C304.502 72.9045 307.869 77.1877 310.75 81.7955L325.111 104.02L329.415 109.58C330.515 110.912 331.82 112.209 332.671 113.716C316.311 117.986 297.42 113.07 285.152 101.491C277.478 94.248 272.168 85.6707 269.666 75.4518C268.978 72.6412 268.414 69.6603 268.334 66.763L268.315 62.9933C268.337 36.0712 291.5 13.7106 318.037 13.0122C319.969 13.0003 321.954 12.9186 323.882 13.0654C347.534 14.8667 367.224 32.3257 371.2 55.8167C373.183 67.5392 370.73 80.395 364.469 90.495C363.418 92.1898 362.288 93.841 360.933 95.3093L353.014 90.3123C347.919 86.7157 341.924 81.088 338.043 76.0443C338.041 75.8102 338.592 75.15 338.742 74.903C340.262 72.3912 341.357 69.5533 341.647 66.6202C343.16 51.341 327.001 38.353 312.597 44.1045C302.657 48.0733 298.507 57.8875 302.504 67.7955Z"/>
	<path fill="#00272B" d="M324.928 77.866L324.031 78.0225C318.032 78.7885 314.354 75.8443 311.355 70.9197C308.237 65.8015 305.592 58.6525 309.89 53.3762C311.893 50.9177 314.95 49.6482 318.043 49.3383C318.418 49.2758 318.852 49.3107 319.233 49.3113C326.589 49.3173 333.44 54.6547 335.034 61.8832C336.625 69.1015 332.169 76.2818 324.928 77.866Z"/>
	<path fill="#00272B" d="M359.973 115.932L352.348 114.475C334.215 109.687 329.303 99.5895 320.853 85.1052C325.742 84.7053 329.054 83.8423 333.309 81.5938L333.531 81.545C334.078 81.8953 334.574 82.4453 335.039 82.8988L338.599 86.5625C345.634 93.7873 352.492 98.8992 362.228 101.46C365.801 102.399 368.366 102.747 371.984 102.795L371.996 113.354C371.992 115.341 372.321 115.453 370.249 115.811C366.841 116.398 363.396 116.235 359.973 115.932Z"/>
	<path fill="#00272B" d="M465.496 60.2045C463.498 55.0955 460.131 50.8123 457.25 46.2045L442.889 23.98L438.585 18.4197C437.485 17.0877 436.18 15.7908 435.329 14.2835C451.689 10.0145 470.58 14.9305 482.847 26.509C490.522 33.752 495.832 42.3293 498.334 52.5482C499.022 55.3588 499.586 58.3397 499.666 61.237L499.685 65.0067C499.663 91.9288 476.5 114.289 449.963 114.988C448.031 115 446.046 115.081 444.118 114.935C420.466 113.133 400.776 95.6743 396.8 72.1833C394.817 60.4608 397.271 47.605 403.531 37.505C404.582 35.8102 405.712 34.159 407.067 32.6907L414.986 37.6877C420.081 41.2843 426.076 46.912 429.957 51.9557C429.959 52.1898 429.408 52.85 429.258 53.097C427.738 55.6088 426.643 58.4467 426.353 61.3798C424.84 76.659 440.999 89.647 455.403 83.8955C465.343 79.9267 469.493 70.1125 465.496 60.2045Z"/>
	<path fill="#00272B" d="M443.072 50.134L443.969 49.9775C449.968 49.2115 453.646 52.1557 456.645 57.0803C459.763 62.1985 462.408 69.3475 458.11 74.6238C456.107 77.0823 453.049 78.3518 449.957 78.6617C449.582 78.7242 449.148 78.6893 448.767 78.6887C441.411 78.6827 434.56 73.3452 432.966 66.1167C431.375 58.8985 435.831 51.7182 443.072 50.134Z"/>
	<path fill="#00272B" d="M408.027 12.0678L415.652 13.5255C433.785 18.313 438.697 28.4105 447.147 42.8948C442.258 43.2947 438.946 44.1577 434.691 46.4062L434.469 46.455C433.922 46.1047 433.426 45.5547 432.961 45.1012L429.401 41.4375C422.366 34.2127 415.508 29.1008 405.772 26.5405C402.199 25.6008 399.634 25.253 396.016 25.2048L396.004 14.6458C396.008 12.6585 395.679 12.5473 397.751 12.1895C401.159 11.6015 404.604 11.765 408.027 12.0678Z"/>
	<path fill="#00272B" d="M17.4965 188.204C15.498 183.096 12.131 178.812 9.2495 174.204L-5.111 151.98L-9.4153 146.42C-10.5148 145.088 -11.8203 143.791 -12.6705 142.284C3.689 138.014 22.5797 142.93 34.8475 154.509C42.522 161.752 47.832 170.329 50.334 180.548C51.022 183.359 51.586 186.34 51.666 189.237L51.685 193.007C51.663 219.929 28.4998 242.289 1.9633 242.988C0.0305 243 -1.9537 243.081 -3.8815 242.935C-27.5345 241.133 -47.2242 223.674 -51.1995 200.183C-53.1833 188.461 -50.7295 175.605 -44.4688 165.505C-43.4183 163.81 -42.288 162.159 -40.933 160.691L-33.0143 165.688C-27.919 169.284 -21.9237 174.912 -18.0427 179.956C-18.0415 180.19 -18.5925 180.85 -18.742 181.097C-20.2615 183.609 -21.3568 186.447 -21.6472 189.38C-23.1603 204.659 -7.0012 217.647 7.4032 211.895C17.343 207.927 21.4928 198.113 17.4965 188.204Z"/>
	<path fill="#00272B" d="M-4.9278 178.134L-4.0312 177.977C1.968 177.212 5.6463 180.156 8.6455 185.08C11.763 190.198 14.4077 197.347 10.1097 202.624C8.107 205.082 5.0495 206.352 1.957 206.662C1.5825 206.724 1.148 206.689 0.7668 206.689C-6.5885 206.683 -13.4395 201.345 -15.0337 194.117C-16.6255 186.899 -12.169 179.718 -4.9278 178.134Z"/>
	<path fill="#00272B" d="M-39.973 140.068L-32.3482 141.525C-14.2152 146.313 -9.303 156.411 -0.853 170.895C-5.7417 171.295 -9.0542 172.158 -13.3093 174.406L-13.5312 174.455C-14.078 174.105 -14.5743 173.555 -15.0387 173.101L-18.5987 169.438C-25.634 162.213 -32.492 157.101 -42.2275 154.541C-45.8012 153.601 -48.366 153.253 -51.9838 153.205L-51.9958 142.646C-51.9922 140.659 -52.3213 140.547 -50.249 140.19C-46.8415 139.601 -43.3958 139.765 -39.973 140.068Z"/>
	<path fill="#00272B" d="M110.504 195.796C112.502 200.904 115.869 205.188 118.751 209.796L133.111 232.02L137.415 237.58C138.515 238.912 139.82 240.209 140.671 241.716C124.311 245.986 105.42 241.07 93.1525 229.491C85.4781 222.248 80.1684 213.671 77.6659 203.452C76.9777 200.641 76.4142 197.66 76.3339 194.763L76.3151 190.993C76.3368 164.071 99.5003 141.711 126.037 141.012C127.969 141 129.954 140.919 131.882 141.065C155.534 142.867 175.224 160.326 179.2 183.817C181.183 195.539 178.73 208.395 172.469 218.495C171.418 220.19 170.288 221.841 168.933 223.309L161.014 218.312C155.919 214.716 149.924 209.088 146.043 204.044C146.041 203.81 146.593 203.15 146.742 202.903C148.262 200.391 149.357 197.553 149.647 194.62C151.16 179.341 135.001 166.353 120.597 172.105C110.657 176.073 106.507 185.887 110.504 195.796Z"/>
	<path fill="#00272B" d="M132.928 205.866L132.031 206.022C126.032 206.788 122.354 203.844 119.355 198.92C116.237 193.802 113.592 186.653 117.89 181.376C119.893 178.918 122.951 177.648 126.043 177.338C126.417 177.276 126.852 177.311 127.233 177.311C134.589 177.317 141.44 182.655 143.034 189.883C144.625 197.101 140.169 204.282 132.928 205.866Z"/>
	<path fill="#00272B" d="M167.973 243.932L160.348 242.475C142.215 237.687 137.303 227.589 128.853 213.105C133.742 212.705 137.054 211.842 141.309 209.594L141.531 209.545C142.078 209.895 142.574 210.445 143.039 210.899L146.599 214.562C153.634 221.787 160.492 226.899 170.228 229.46C173.801 230.399 176.366 230.747 179.984 230.795L179.996 241.354C179.992 243.341 180.321 243.453 178.249 243.811C174.841 244.398 171.396 244.235 167.973 243.932Z"/>
	<path fill="#00272B" d="M273.496 188.204C271.498 183.096 268.131 178.812 265.25 174.204L250.889 151.98L246.585 146.42C245.485 145.088 244.18 143.791 243.329 142.284C259.689 138.014 278.58 142.93 290.847 154.509C298.522 161.752 303.832 170.329 306.334 180.548C307.022 183.359 307.586 186.34 307.666 189.237L307.685 193.007C307.663 219.929 284.5 242.289 257.963 242.988C256.031 243 254.046 243.081 252.118 242.935C228.465 241.133 208.776 223.674 204.8 200.183C202.817 188.461 205.27 175.605 211.531 165.505C212.582 163.81 213.712 162.159 215.067 160.691L222.986 165.688C228.081 169.284 234.076 174.912 237.957 179.956C237.959 180.19 237.407 180.85 237.258 181.097C235.738 183.609 234.643 186.447 234.353 189.38C232.84 204.659 248.999 217.647 263.403 211.895C273.343 207.927 277.493 198.113 273.496 188.204Z"/>
	<path fill="#00272B" d="M251.072 178.134L251.969 177.977C257.968 177.212 261.646 180.156 264.645 185.08C267.763 190.198 270.408 197.347 266.11 202.624C264.107 205.082 261.049 206.352 257.957 206.662C257.582 206.724 257.148 206.689 256.767 206.689C249.411 206.683 242.56 201.345 240.966 194.117C239.375 186.899 243.831 179.718 251.072 178.134Z"/>
	<path fill="#00272B" d="M216.027 140.068L223.652 141.525C241.785 146.313 246.697 156.411 255.147 170.895C250.258 171.295 246.946 172.158 242.691 174.406L242.469 174.455C241.922 174.105 241.426 173.555 240.961 173.101L237.401 169.438C230.366 162.213 223.508 157.101 213.773 154.541C210.199 153.601 207.634 153.253 204.016 153.205L204.004 142.646C204.008 140.659 203.679 140.547 205.751 140.19C209.159 139.601 212.604 139.765 216.027 140.068Z"/>
	<path fill="#00272B" d="M366.504 195.796C368.502 200.904 371.869 205.188 374.75 209.796L389.111 232.02L393.415 237.58C394.515 238.912 395.82 240.209 396.671 241.716C380.311 245.986 361.42 241.07 349.152 229.491C341.478 222.248 336.168 213.671 333.666 203.452C332.978 200.641 332.414 197.66 332.334 194.763L332.315 190.993C332.337 164.071 355.5 141.711 382.037 141.012C383.969 141 385.954 140.919 387.882 141.065C411.534 142.867 431.224 160.326 435.2 183.817C437.183 195.539 434.73 208.395 428.469 218.495C427.418 220.19 426.288 221.841 424.933 223.309L417.014 218.312C411.919 214.716 405.924 209.088 402.043 204.044C402.041 203.81 402.592 203.15 402.742 202.903C404.262 200.391 405.357 197.553 405.647 194.62C407.16 179.341 391.001 166.353 376.597 172.105C366.657 176.073 362.507 185.887 366.504 195.796Z"/>
	<path fill="#00272B" d="M388.928 205.866L388.031 206.022C382.032 206.788 378.354 203.844 375.355 198.92C372.237 193.802 369.592 186.653 373.89 181.376C375.893 178.918 378.95 177.648 382.043 177.338C382.418 177.276 382.852 177.311 383.233 177.311C390.589 177.317 397.44 182.655 399.034 189.883C400.625 197.101 396.169 204.282 388.928 205.866Z"/>
	<path fill="#00272B" d="M423.973 243.932L416.348 242.475C398.215 237.687 393.303 227.589 384.853 213.105C389.742 212.705 393.054 211.842 397.309 209.594L397.531 209.545C398.078 209.895 398.574 210.445 399.039 210.899L402.599 214.562C409.634 221.787 416.492 226.899 426.228 229.46C429.801 230.399 432.366 230.747 435.984 230.795L435.996 241.354C435.992 243.341 436.321 243.453 434.249 243.811C430.841 244.398 427.396 244.235 423.973 243.932Z"/>
	<path fill="#00272B" d="M529.496 188.204C527.498 183.096 524.131 178.812 521.25 174.204L506.889 151.98L502.585 146.42C501.485 145.088 500.18 143.791 499.329 142.284C515.689 138.014 534.58 142.93 546.847 154.509C554.522 161.752 559.832 170.329 562.334 180.548C563.022 183.359 563.586 186.34 563.666 189.237L563.685 193.007C563.663 219.929 540.5 242.289 513.963 242.988C512.03 243 510.046 243.081 508.118 242.935C484.466 241.133 464.776 223.674 460.8 200.183C458.817 188.461 461.271 175.605 467.531 165.505C468.582 163.81 469.712 162.159 471.067 160.691L478.986 165.688C484.081 169.284 490.076 174.912 493.957 179.956C493.959 180.19 493.408 180.85 493.258 181.097C491.738 183.609 490.643 186.447 490.353 189.38C488.84 204.659 504.999 217.647 519.403 211.895C529.343 207.927 533.493 198.113 529.496 188.204Z"/>
	<path fill="#00272B" d="M507.072 178.134L507.969 177.977C513.968 177.212 517.646 180.156 520.645 185.08C523.763 190.198 526.408 197.347 522.11 202.624C520.107 205.082 517.049 206.352 513.957 206.662C513.582 206.724 513.148 206.689 512.767 206.689C505.411 206.683 498.56 201.345 496.966 194.117C495.375 186.899 499.831 179.718 507.072 178.134Z"/>
	<path fill="#00272B" d="M472.027 140.068L479.652 141.525C497.785 146.313 502.697 156.411 511.147 170.895C506.258 171.295 502.946 172.158 498.691 174.406L498.469 174.455C497.922 174.105 497.426 173.555 496.961 173.101L493.401 169.438C486.366 162.213 479.508 157.101 469.772 154.541C466.199 153.601 463.634 153.253 460.016 153.205L460.004 142.646C460.008 140.659 459.679 140.547 461.751 140.19C465.159 139.601 468.604 139.765 472.027 140.068Z"/>
	<path fill="#00272B" d="M46.5035 323.796C48.502 328.904 51.869 333.188 54.7505 337.796L69.111 360.02L73.4153 365.58C74.5148 366.912 75.8203 368.209 76.6705 369.716C60.311 373.986 41.4203 369.07 29.1525 357.491C21.4781 350.248 16.1684 341.671 13.6659 331.452C12.9777 328.641 12.4142 325.66 12.3339 322.763L12.3151 318.993C12.3368 292.071 35.5003 269.711 62.0367 269.012C63.9695 269 65.9537 268.919 67.8815 269.065C91.5345 270.867 111.224 288.326 115.2 311.817C117.183 323.539 114.73 336.395 108.469 346.495C107.418 348.19 106.288 349.841 104.933 351.309L97.0143 346.312C91.919 342.716 85.9237 337.088 82.0427 332.044C82.0415 331.81 82.5925 331.15 82.742 330.903C84.2615 328.391 85.3568 325.553 85.6472 322.62C87.1603 307.341 71.0012 294.353 56.5968 300.105C46.657 304.073 42.5072 313.887 46.5035 323.796Z"/>
	<path fill="#00272B" d="M68.9278 333.866L68.0312 334.022C62.032 334.788 58.3537 331.844 55.3545 326.92C52.237 321.802 49.5922 314.653 53.8903 309.376C55.893 306.918 58.9505 305.648 62.043 305.338C62.4175 305.276 62.852 305.311 63.2332 305.311C70.5885 305.317 77.4395 310.655 79.0337 317.883C80.6255 325.101 76.169 332.282 68.9278 333.866Z"/>
	<path fill="#00272B" d="M103.973 371.932L96.3482 370.475C78.2152 365.687 73.303 355.589 64.853 341.105C69.7417 340.705 73.0542 339.842 77.3093 337.594L77.5312 337.545C78.078 337.895 78.5743 338.445 79.0387 338.899L82.5987 342.562C89.634 349.787 96.492 354.899 106.228 357.46C109.801 358.399 112.366 358.747 115.984 358.795L115.996 369.354C115.992 371.341 116.321 371.453 114.249 371.811C110.841 372.398 107.396 372.235 103.973 371.932Z"/>
	<path fill="#00272B" d="M209.496 316.204C207.498 311.096 204.131 306.812 201.25 302.204L186.889 279.98L182.585 274.42C181.485 273.088 180.18 271.791 179.329 270.284C195.689 266.014 214.58 270.93 226.847 282.509C234.522 289.752 239.832 298.329 242.334 308.548C243.022 311.359 243.586 314.34 243.666 317.237L243.685 321.007C243.663 347.929 220.5 370.289 193.963 370.988C192.031 371 190.046 371.081 188.118 370.935C164.465 369.133 144.776 351.674 140.8 328.183C138.817 316.461 141.27 303.605 147.531 293.505C148.582 291.81 149.712 290.159 151.067 288.691L158.986 293.688C164.081 297.284 170.076 302.912 173.957 307.956C173.959 308.19 173.407 308.85 173.258 309.097C171.738 311.609 170.643 314.447 170.353 317.38C168.84 332.659 184.999 345.647 199.403 339.895C209.343 335.927 213.493 326.113 209.496 316.204Z"/>
	<path fill="#00272B" d="M187.072 306.134L187.969 305.978C193.968 305.212 197.646 308.156 200.645 313.08C203.763 318.199 206.408 325.347 202.11 330.624C200.107 333.082 197.049 334.352 193.957 334.662C193.582 334.724 193.148 334.689 192.767 334.689C185.411 334.683 178.56 329.345 176.966 322.117C175.375 314.899 179.831 307.718 187.072 306.134Z"/>
	<path fill="#00272B" d="M152.027 268.068L159.652 269.526C177.785 274.313 182.697 284.411 191.147 298.895C186.258 299.295 182.946 300.158 178.691 302.406L178.469 302.455C177.922 302.105 177.426 301.555 176.961 301.101L173.401 297.438C166.366 290.213 159.508 285.101 149.773 282.541C146.199 281.601 143.634 281.253 140.016 281.205L140.004 270.646C140.008 268.659 139.679 268.547 141.751 268.19C145.159 267.601 148.604 267.765 152.027 268.068Z"/>
	<path fill="#00272B" d="M302.504 323.796C304.502 328.904 307.869 333.188 310.75 337.796L325.111 360.02L329.415 365.58C330.515 366.912 331.82 368.209 332.671 369.716C316.311 373.986 297.42 369.07 285.152 357.491C277.478 350.248 272.168 341.671 269.666 331.452C268.978 328.641 268.414 325.66 268.334 322.763L268.315 318.993C268.337 292.071 291.5 269.711 318.037 269.012C319.969 269 321.954 268.919 323.882 269.065C347.534 270.867 367.224 288.326 371.2 311.817C373.183 323.539 370.73 336.395 364.469 346.495C363.418 348.19 362.288 349.841 360.933 351.309L353.014 346.312C347.919 342.716 341.924 337.088 338.043 332.044C338.041 331.81 338.592 331.15 338.742 330.903C340.262 328.391 341.357 325.553 341.647 322.62C343.16 307.341 327.001 294.353 312.597 300.105C302.657 304.073 298.507 313.887 302.504 323.796Z"/>
	<path fill="#00272B" d="M324.928 333.866L324.031 334.022C318.032 334.788 314.354 331.844 311.355 326.92C308.237 321.802 305.592 314.653 309.89 309.376C311.893 306.918 314.95 305.648 318.043 305.338C318.418 305.276 318.852 305.311 319.233 305.311C326.589 305.317 333.44 310.655 335.034 317.883C336.625 325.101 332.169 332.282 324.928 333.866Z"/>
	<path fill="#00272B" d="M359.973 371.932L352.348 370.475C334.215 365.687 329.303 355.589 320.853 341.105C325.742 340.705 329.054 339.842 333.309 337.594L333.531 337.545C334.078 337.895 334.574 338.445 335.039 338.899L338.599 342.562C345.634 349.787 352.492 354.899 362.228 357.46C365.801 358.399 368.366 358.747 371.984 358.795L371.996 369.354C371.992 371.341 372.321 371.453 370.249 371.811C366.841 372.398 363.396 372.235 359.973 371.932Z"/>
	<path fill="#00272B" d="M465.496 316.204C463.498 311.096 460.131 306.812 457.25 302.204L442.889 279.98L438.585 274.42C437.485 273.088 436.18 271.791 435.329 270.284C451.689 266.014 470.58 270.93 482.847 282.509C490.522 289.752 495.832 298.329 498.334 308.548C499.022 311.359 499.586 314.34 499.666 317.237L499.685 321.007C499.663 347.929 476.5 370.289 449.963 370.988C448.031 371 446.046 371.081 444.118 370.935C420.466 369.133 400.776 351.674 396.8 328.183C394.817 316.461 397.271 303.605 403.531 293.505C404.582 291.81 405.712 290.159 407.067 288.691L414.986 293.688C420.081 297.284 426.076 302.912 429.957 307.956C429.959 308.19 429.408 308.85 429.258 309.097C427.738 311.609 426.643 314.447 426.353 317.38C424.84 332.659 440.999 345.647 455.403 339.895C465.343 335.927 469.493 326.113 465.496 316.204Z"/>
	<path fill="#00272B" d="M443.072 306.134L443.969 305.978C449.968 305.212 453.646 308.156 456.645 313.08C459.763 318.199 462.408 325.347 458.11 330.624C456.107 333.082 453.049 334.352 449.957 334.662C449.582 334.724 449.148 334.689 448.767 334.689C441.411 334.683 434.56 329.345 432.966 322.117C431.375 314.899 435.831 307.718 443.072 306.134Z"/>
	<path fill="#00272B" d="M408.027 268.068L415.652 269.526C433.785 274.313 438.697 284.411 447.147 298.895C442.258 299.295 438.946 300.158 434.691 302.406L434.469 302.455C433.922 302.105 433.426 301.555 432.961 301.101L429.401 297.438C422.366 290.213 415.508 285.101 405.772 282.541C402.199 281.601 399.634 281.253 396.016 281.205L396.004 270.646C396.008 268.659 395.679 268.547 397.751 268.19C401.159 267.601 404.604 267.765 408.027 268.068Z"/>
	<path fill="#00272B" d="M17.4965 444.204C15.498 439.096 12.131 434.812 9.2495 430.204L-5.111 407.98L-9.4153 402.42C-10.5148 401.088 -11.8203 399.791 -12.6705 398.284C3.689 394.014 22.5797 398.93 34.8475 410.509C42.522 417.752 47.832 426.329 50.334 436.548C51.022 439.359 51.586 442.34 51.666 445.237L51.685 449.007C51.663 475.929 28.4998 498.289 1.9633 498.988C0.0305 499 -1.9537 499.081 -3.8815 498.935C-27.5345 497.133 -47.2242 479.674 -51.1995 456.183C-53.1833 444.461 -50.7295 431.605 -44.4688 421.505C-43.4183 419.81 -42.288 418.159 -40.933 416.691L-33.0143 421.688C-27.919 425.284 -21.9237 430.912 -18.0427 435.956C-18.0415 436.19 -18.5925 436.85 -18.742 437.097C-20.2615 439.609 -21.3568 442.447 -21.6472 445.38C-23.1603 460.659 -7.0012 473.647 7.4032 467.895C17.343 463.927 21.4928 454.113 17.4965 444.204Z"/>
	<path fill="#00272B" d="M-4.9278 434.134L-4.0312 433.978C1.968 433.212 5.6463 436.156 8.6455 441.08C11.763 446.199 14.4077 453.347 10.1097 458.624C8.107 461.082 5.0495 462.352 1.957 462.662C1.5825 462.724 1.148 462.689 0.7668 462.689C-6.5885 462.683 -13.4395 457.345 -15.0337 450.117C-16.6255 442.899 -12.169 435.718 -4.9278 434.134Z"/>
	<path fill="#00272B" d="M-39.973 396.068L-32.3482 397.526C-14.2152 402.313 -9.303 412.411 -0.853 426.895C-5.7417 427.295 -9.0542 428.158 -13.3093 430.406L-13.5312 430.455C-14.078 430.105 -14.5743 429.555 -15.0387 429.101L-18.5987 425.438C-25.634 418.213 -32.492 413.101 -42.2275 410.541C-45.8012 409.601 -48.366 409.253 -51.9838 409.205L-51.9958 398.646C-51.9922 396.659 -52.3213 396.547 -50.249 396.19C-46.8415 395.601 -43.3958 395.765 -39.973 396.068Z"/>
	<path fill="#00272B" d="M110.504 451.796C112.502 456.904 115.869 461.188 118.751 465.796L133.111 488.02L137.415 493.58C138.515 494.912 139.82 496.209 140.671 497.716C124.311 501.986 105.42 497.07 93.1525 485.491C85.4781 478.248 80.1684 469.671 77.6659 459.452C76.9777 456.641 76.4142 453.66 76.3339 450.763L76.3151 446.993C76.3368 420.071 99.5003 397.711 126.037 397.012C127.969 397 129.954 396.919 131.882 397.065C155.534 398.867 175.224 416.326 179.2 439.817C181.183 451.539 178.73 464.395 172.469 474.495C171.418 476.19 170.288 477.841 168.933 479.309L161.014 474.312C155.919 470.716 149.924 465.088 146.043 460.044C146.041 459.81 146.593 459.15 146.742 458.903C148.262 456.391 149.357 453.553 149.647 450.62C151.16 435.341 135.001 422.353 120.597 428.105C110.657 432.073 106.507 441.887 110.504 451.796Z"/>
	<path fill="#00272B" d="M132.928 461.866L132.031 462.022C126.032 462.788 122.354 459.844 119.355 454.92C116.237 449.802 113.592 442.653 117.89 437.376C119.893 434.918 122.951 433.648 126.043 433.338C126.417 433.276 126.852 433.311 127.233 433.311C134.589 433.317 141.44 438.655 143.034 445.883C144.625 453.101 140.169 460.282 132.928 461.866Z"/>
	<path fill="#00272B" d="M167.973 499.932L160.348 498.475C142.215 493.687 137.303 483.589 128.853 469.105C133.742 468.705 137.054 467.842 141.309 465.594L141.531 465.545C142.078 465.895 142.574 466.445 143.039 466.899L146.599 470.562C153.634 477.787 160.492 482.899 170.228 485.46C173.801 486.399 176.366 486.747 179.984 486.795L179.996 497.354C179.992 499.341 180.321 499.453 178.249 499.811C174.841 500.398 171.396 500.235 167.973 499.932Z"/>
	<path fill="#00272B" d="M273.496 444.204C271.498 439.096 268.131 434.812 265.25 430.204L250.889 407.98L246.585 402.42C245.485 401.088 244.18 399.791 243.329 398.284C259.689 394.014 278.58 398.93 290.847 410.509C298.522 417.752 303.832 426.329 306.334 436.548C307.022 439.359 307.586 442.34 307.666 445.237L307.685 449.007C307.663 475.929 284.5 498.289 257.963 498.988C256.031 499 254.046 499.081 252.118 498.935C228.465 497.133 208.776 479.674 204.8 456.183C202.817 444.461 205.27 431.605 211.531 421.505C212.582 419.81 213.712 418.159 215.067 416.691L222.986 421.688C228.081 425.284 234.076 430.912 237.957 435.956C237.959 436.19 237.407 436.85 237.258 437.097C235.738 439.609 234.643 442.447 234.353 445.38C232.84 460.659 248.999 473.647 263.403 467.895C273.343 463.927 277.493 454.113 273.496 444.204Z"/>
	<path fill="#00272B" d="M251.072 434.134L251.969 433.978C257.968 433.212 261.646 436.156 264.645 441.08C267.763 446.199 270.408 453.347 266.11 458.624C264.107 461.082 261.049 462.352 257.957 462.662C257.582 462.724 257.148 462.689 256.767 462.689C249.411 462.683 242.56 457.345 240.966 450.117C239.375 442.899 243.831 435.718 251.072 434.134Z"/>
	<path fill="#00272B" d="M216.027 396.068L223.652 397.526C241.785 402.313 246.697 412.411 255.147 426.895C250.258 427.295 246.946 428.158 242.691 430.406L242.469 430.455C241.922 430.105 241.426 429.555 240.961 429.101L237.401 425.438C230.366 418.213 223.508 413.101 213.773 410.541C210.199 409.601 207.634 409.253 204.016 409.205L204.004 398.646C204.008 396.659 203.679 396.547 205.751 396.19C209.159 395.601 212.604 395.765 216.027 396.068Z"/>
	<path fill="#00272B" d="M366.504 451.796C368.502 456.904 371.869 461.188 374.75 465.796L389.111 488.02L393.415 493.58C394.515 494.912 395.82 496.209 396.671 497.716C380.311 501.986 361.42 497.07 349.152 485.491C341.478 478.248 336.168 469.671 333.666 459.452C332.978 456.641 332.414 453.66 332.334 450.763L332.315 446.993C332.337 420.071 355.5 397.711 382.037 397.012C383.969 397 385.954 396.919 387.882 397.065C411.534 398.867 431.224 416.326 435.2 439.817C437.183 451.539 434.73 464.395 428.469 474.495C427.418 476.19 426.288 477.841 424.933 479.309L417.014 474.312C411.919 470.716 405.924 465.088 402.043 460.044C402.041 459.81 402.592 459.15 402.742 458.903C404.262 456.391 405.357 453.553 405.647 450.62C407.16 435.341 391.001 422.353 376.597 428.105C366.657 432.073 362.507 441.887 366.504 451.796Z"/>
	<path fill="#00272B" d="M388.928 461.866L388.031 462.022C382.032 462.788 378.354 459.844 375.355 454.92C372.237 449.802 369.592 442.653 373.89 437.376C375.893 434.918 378.95 433.648 382.043 433.338C382.418 433.276 382.852 433.311 383.233 433.311C390.589 433.317 397.44 438.655 399.034 445.883C400.625 453.101 396.169 460.282 388.928 461.866Z"/>
	<path fill="#00272B" d="M423.973 499.932L416.348 498.475C398.215 493.687 393.303 483.589 384.853 469.105C389.742 468.705 393.054 467.842 397.309 465.594L397.531 465.545C398.078 465.895 398.574 466.445 399.039 466.899L402.599 470.562C409.634 477.787 416.492 482.899 426.228 485.46C429.801 486.399 432.366 486.747 435.984 486.795L435.996 497.354C435.992 499.341 436.321 499.453 434.249 499.811C430.841 500.398 427.396 500.235 423.973 499.932Z"/>
	<path fill="#00272B" d="M529.496 444.204C527.498 439.096 524.131 434.812 521.25 430.204L506.889 407.98L502.585 402.42C501.485 401.088 500.18 399.791 499.329 398.284C515.689 394.014 534.58 398.93 546.847 410.509C554.522 417.752 559.832 426.329 562.334 436.548C563.022 439.359 563.586 442.34 563.666 445.237L563.685 449.007C563.663 475.929 540.5 498.289 513.963 498.988C512.03 499 510.046 499.081 508.118 498.935C484.466 497.133 464.776 479.674 460.8 456.183C458.817 444.461 461.271 431.605 467.531 421.505C468.582 419.81 469.712 418.159 471.067 416.691L478.986 421.688C484.081 425.284 490.076 430.912 493.957 435.956C493.959 436.19 493.408 436.85 493.258 437.097C491.738 439.609 490.643 442.447 490.353 445.38C488.84 460.659 504.999 473.647 519.403 467.895C529.343 463.927 533.493 454.113 529.496 444.204Z"/>
	<path fill="#00272B" d="M507.072 434.134L507.969 433.978C513.968 433.212 517.646 436.156 520.645 441.08C523.763 446.199 526.408 453.347 522.11 458.624C520.107 461.082 517.049 462.352 513.957 462.662C513.582 462.724 513.148 462.689 512.767 462.689C505.411 462.683 498.56 457.345 496.966 450.117C495.375 442.899 499.831 435.718 507.072 434.134Z"/>
	<path fill="#00272B" d="M472.027 396.068L479.652 397.526C497.785 402.313 502.697 412.411 511.147 426.895C506.258 427.295 502.946 428.158 498.691 430.406L498.469 430.455C497.922 430.105 497.426 429.555 496.961 429.101L493.401 425.438C486.366 418.213 479.508 413.101 469.772 410.541C466.199 409.601 463.634 409.253 460.016 409.205L460.004 398.646C460.008 396.659 459.679 396.547 461.751 396.19C465.159 395.601 468.604 395.765 472.027 396.068Z"/>
</svg>
