<?xml version="1.0" encoding="utf-8" ?>
<svg xmlns="http://www.w3.org/2000/svg" xmlns:xlink="http://www.w3.org/1999/xlink" width="512" height="512">
	<path fill="#00272B" d="M0 0L0 512L512 512L512 0L0 0Z"/>
	<path fill="#E0FF4F" d="M170.496 258.669C171.901 262.261 174.268 265.273 176.294 268.512L186.391 284.139L189.418 288.049C190.191 288.985 191.109 289.897 191.707 290.957C180.204 293.959 166.921 290.502 158.296 282.361C152.9 277.268 149.166 271.237 147.407 264.052C146.923 262.076 146.527 259.98 146.47 257.943L146.457 255.292C146.472 236.363 162.759 220.64 181.417 220.149C182.776 220.141 184.172 220.083 185.527 220.187C202.158 221.453 216.002 233.729 218.797 250.246C220.192 258.489 218.467 267.528 214.065 274.629C213.326 275.821 212.532 276.982 211.579 278.014L206.011 274.501C202.428 271.972 198.213 268.015 195.484 264.469C195.483 264.304 195.871 263.84 195.976 263.666C197.044 261.9 197.814 259.905 198.019 257.842C199.082 247.099 187.721 237.967 177.592 242.011C170.604 244.802 167.686 251.702 170.496 258.669Z"/>
	<path fill="#E0FF4F" d="M186.263 265.75L185.632 265.86C181.414 266.398 178.828 264.328 176.719 260.865C174.527 257.267 172.667 252.24 175.689 248.53C177.098 246.802 179.247 245.909 181.422 245.691C181.685 245.647 181.991 245.672 182.259 245.672C187.43 245.676 192.247 249.429 193.368 254.512C194.488 259.587 191.354 264.636 186.263 265.75Z"/>
	<path fill="#E0FF4F" d="M210.904 292.515L205.543 291.49C192.793 288.124 189.339 281.024 183.398 270.84C186.835 270.558 189.164 269.952 192.156 268.371L192.312 268.336C192.696 268.583 193.045 268.969 193.372 269.288L195.875 271.864C200.822 276.944 205.644 280.539 212.489 282.339C215.002 282.999 216.805 283.244 219.349 283.278L219.357 290.702C219.355 292.099 219.586 292.178 218.129 292.429C215.733 292.843 213.31 292.728 210.904 292.515Z"/>
	<path fill="#E0FF4F" d="M234.798 277.521L234.798 234.373L243.481 234.373C246.357 234.373 248.736 234.755 250.619 235.518C252.501 236.282 253.895 237.507 254.8 239.194C255.706 240.881 256.159 243.091 256.159 245.826C256.159 247.495 255.981 249.013 255.626 250.38C255.271 251.747 254.703 252.902 253.921 253.843C253.14 254.784 252.11 255.467 250.832 255.893L256.958 277.521L251.151 277.521L245.505 257.278L240.817 257.278L240.817 277.521L234.798 277.521ZM240.817 252.964L243.108 252.964C244.812 252.964 246.197 252.751 247.263 252.324C248.328 251.898 249.109 251.17 249.607 250.14C250.104 249.111 250.352 247.672 250.352 245.826C250.352 243.304 249.891 241.484 248.967 240.366C248.044 239.247 246.215 238.688 243.481 238.688L240.817 238.688L240.817 252.964ZM262.444 277.521L262.444 234.373L279.171 234.373L279.171 238.847L268.464 238.847L268.464 253.123L277.146 253.123L277.146 257.385L268.464 257.385L268.464 273.206L279.277 273.206L279.277 277.521L262.444 277.521ZM291.636 277.521L281.994 234.373L287.64 234.373L294.459 266.174L300.958 234.373L306.444 234.373L296.909 277.521L291.636 277.521ZM311.025 277.521L311.025 234.373L327.752 234.373L327.752 238.847L317.045 238.847L317.045 253.123L325.728 253.123L325.728 257.385L317.045 257.385L317.045 273.206L327.858 273.206L327.858 277.521L311.025 277.521ZM332.706 277.521L332.706 234.373L338.725 234.373L338.725 273.206L349.752 273.206L349.752 277.521L332.706 277.521ZM363.868 278C361.382 278 359.314 277.467 357.662 276.402C356.011 275.337 354.759 273.863 353.907 271.981C353.054 270.098 352.557 267.914 352.415 265.429L357.742 263.99C357.849 265.517 358.088 266.991 358.461 268.412C358.834 269.832 359.447 270.995 360.299 271.901C361.151 272.806 362.341 273.259 363.868 273.259C365.43 273.259 366.611 272.824 367.41 271.954C368.209 271.084 368.609 269.832 368.609 268.199C368.609 266.245 368.165 264.674 367.277 263.484C366.389 262.295 365.271 261.096 363.921 259.889L356.677 253.496C355.256 252.253 354.209 250.895 353.534 249.421C352.859 247.948 352.522 246.128 352.522 243.961C352.522 240.801 353.427 238.35 355.238 236.61C357.05 234.87 359.518 234 362.643 234C364.347 234 365.848 234.222 367.144 234.666C368.44 235.11 369.524 235.793 370.393 236.717C371.263 237.64 371.956 238.803 372.471 240.206C372.986 241.609 373.332 243.251 373.51 245.133L368.396 246.518C368.289 245.098 368.076 243.793 367.757 242.603C367.437 241.413 366.878 240.454 366.079 239.726C365.28 238.998 364.134 238.634 362.643 238.634C361.151 238.634 359.988 239.034 359.154 239.833C358.319 240.632 357.902 241.813 357.902 243.375C357.902 244.689 358.124 245.772 358.568 246.625C359.012 247.477 359.731 248.347 360.725 249.235L368.023 255.627C369.657 257.048 371.095 258.743 372.338 260.714C373.581 262.685 374.202 265.02 374.202 267.719C374.202 269.85 373.758 271.688 372.87 273.232C371.982 274.777 370.766 275.958 369.222 276.775C367.677 277.592 365.892 278 363.868 278Z"/>
</svg>
