<?xml version="1.0" encoding="utf-8" ?>
<svg xmlns="http://www.w3.org/2000/svg" xmlns:xlink="http://www.w3.org/1999/xlink" width="512" height="512">
	<path d="M186.014 271.182C194.008 291.618 207.476 308.751 219.002 327.182L276.444 416.08L293.661 438.321C298.059 443.649 303.281 448.837 306.682 454.866C241.244 471.942 165.681 452.278 116.61 405.964C85.9126 376.992 64.6735 342.683 54.6636 301.807C51.9107 290.565 49.6568 278.641 49.3357 267.052L49.2603 251.973C49.347 144.285 142.001 54.8425 248.147 52.0489C255.878 52.001 263.815 51.6744 271.526 52.2616C366.138 59.467 444.897 129.303 460.798 223.267C468.733 270.157 458.918 321.58 433.875 361.98C429.673 368.759 425.152 375.364 419.732 381.237L388.057 361.249C367.676 346.863 343.695 324.352 328.171 304.177C328.166 303.241 330.37 300.6 330.968 299.612C337.046 289.565 341.427 278.213 342.589 266.481C348.641 205.364 284.005 153.412 226.387 176.418C186.628 192.293 170.029 231.55 186.014 271.182Z"/>
	<path d="M275.711 311.464L272.125 312.09C248.128 315.154 233.415 303.377 221.418 283.679C208.948 263.206 198.369 234.61 215.561 213.505C223.572 203.671 235.802 198.593 248.172 197.353C249.67 197.103 251.408 197.243 252.933 197.245C282.354 197.269 309.758 218.619 316.135 247.533C322.502 276.406 304.676 305.127 275.711 311.464Z"/>
	<path d="M415.892 463.729L385.393 457.898C312.861 438.748 293.212 398.358 259.412 340.421C278.967 338.821 292.217 335.369 309.237 326.375L310.125 326.18C312.312 327.581 314.297 329.781 316.155 331.595L330.395 346.25C358.536 375.149 385.968 395.597 424.91 405.838C439.205 409.597 449.464 410.988 463.935 411.181L463.983 453.417C463.969 461.366 465.285 461.811 456.996 463.242C443.366 465.594 429.583 464.94 415.892 463.729Z"/>
</svg>
