<?xml version="1.0" encoding="utf-8" ?>
<svg xmlns="http://www.w3.org/2000/svg" xmlns:xlink="http://www.w3.org/1999/xlink" width="512" height="512">
	<path fill="#E0FF4F" d="M0 0L0 512L512 512L512 0L0 0Z"/>
	<path fill="#00272B" d="M201.734 267.772C207.932 283.618 218.375 296.903 227.312 311.194L271.852 380.125L285.202 397.37C288.612 401.501 292.661 405.524 295.298 410.199C244.558 423.439 185.967 408.192 147.918 372.281C124.116 349.816 107.647 323.213 99.8856 291.518C97.7511 282.801 96.0034 273.556 95.7544 264.57L95.696 252.878C95.7632 169.377 167.606 100.024 249.911 97.8582C255.905 97.8211 262.06 97.5678 268.039 98.0232C341.4 103.61 402.469 157.76 414.798 230.619C420.951 266.977 413.341 306.85 393.923 338.176C390.664 343.432 387.159 348.554 382.956 353.108L358.396 337.609C342.593 326.454 323.998 309 311.961 293.356C311.957 292.63 313.666 290.582 314.129 289.816C318.842 282.026 322.239 273.224 323.14 264.127C327.833 216.737 277.715 176.454 233.038 194.293C202.21 206.602 189.339 237.042 201.734 267.772Z"/>
	<path fill="#00272B" d="M271.284 299.006L268.503 299.492C249.896 301.867 238.488 292.736 229.185 277.462C219.516 261.587 211.313 239.414 224.644 223.05C230.856 215.425 240.339 211.487 249.93 210.526C251.092 210.332 252.439 210.44 253.622 210.442C276.435 210.461 297.683 227.015 302.628 249.435C307.565 271.823 293.743 294.093 271.284 299.006Z"/>
	<path fill="#00272B" d="M379.979 417.071L356.33 412.55C300.089 397.701 284.854 366.383 258.646 321.459C273.808 320.219 284.082 317.542 297.279 310.568L297.968 310.417C299.664 311.503 301.203 313.209 302.644 314.616L313.685 325.979C335.505 348.387 356.776 364.242 386.971 372.183C398.055 375.098 406.01 376.176 417.231 376.326L417.268 409.075C417.257 415.239 418.278 415.584 411.85 416.694C401.282 418.517 390.595 418.01 379.979 417.071Z"/>
</svg>
